<svg id="Слой_1" data-name="Слой 1" xmlns="http://www.w3.org/2000/svg" viewBox="0 0 1920 1080"><polygon points="1359.55 478.35 1359.55 599.67 1385.72 599.67 1385.72 550.11 1441.53 550.11 1441.53 599.67 1467.7 599.67 1467.7 478.35 1441.53 478.35 1441.53 528.09 1385.72 528.09 1385.72 478.35 1359.55 478.35"/><polygon points="1526.65 550.74 1542.94 550.74 1583.12 599.68 1616.95 599.68 1563.39 536.93 1610.19 478.35 1580.1 478.35 1541.1 530.35 1526.65 530.35 1526.65 478.35 1500.46 478.35 1500.46 599.68 1526.65 599.68 1526.65 550.74"/><path d="M1314.55,599.67h27.56L1291,478.35h-26.7l-52.34,121.32h26.52L1249,575.24h55.64ZM1256.83,555l20.28-48.71L1296.17,555Z"/><path d="M1157.21,525.64h-31.86V498.55h68.47l.06-20.2h-94.71V599.67h54.66c30.66,0,48.25-13.89,48.25-38.11,0-23.16-15.94-35.92-44.87-35.92m-4.56,53.83h-27.3V545.84h27.3c16.62,0,24.36,5.63,24.36,16.82,0,11.43-8.2,16.81-24.36,16.81"/><polygon points="890.85 498.55 918.26 478.35 826.53 478.35 826.53 599.68 918.26 599.68 918.26 579.47 852.71 579.47 852.71 548.41 908.62 548.41 908.62 528.21 852.71 528.21 852.71 498.55 890.85 498.55"/><path d="M757.29,525.64H725.43V498.55h50.85l27.41-20.2H699.25V599.68h54.66c30.66,0,48.24-13.9,48.24-38.12,0-23.16-15.93-35.92-44.86-35.92m-4.56,53.83h-27.3V545.84h27.3c16.61,0,24.35,5.63,24.35,16.82,0,11.43-8.19,16.81-24.35,16.81"/><path d="M992.58,478.35H942.64V599.67h26.17V565.31h23.77c31.87,0,51.67-16.76,51.67-43.54s-19.8-43.42-51.67-43.42M992,545.11H968.81V498.55H992c16.78,0,26,8.27,26,23.28s-9.23,23.28-26,23.28"/><path d="M654.31,573.41a46.89,46.89,0,0,1-22.6,5.66c-23.6,0-40.73-16.85-40.73-40.06S608.11,499,631.71,499a39.88,39.88,0,0,1,23.81,7.46l18.78-13.84-1.24-1.09c-11-9.63-25.61-14.72-42.36-14.72-18.17,0-34.66,6.12-46.43,17.25s-18.36,26.93-18.36,44.33,6.5,33.46,18.3,45,28.28,17.94,46.32,17.94c18.87,0,35.35-6.58,46.53-18.55l-16.95-12.49Z"/><path d="M503.63,538.42a100.68,100.68,0,0,0-1.6-17.91L480.5,536.37c0,.68,0,1.37,0,2A77,77,0,1,1,447,474.94l19.45-14.34a100,100,0,1,0,37.2,77.82Z"/><path d="M482.76,477.28a100.57,100.57,0,0,1,12,19.88l-91.13,67.16-38.07-23.87V511.74l38.07,23.86Z"/></svg>